#!OML:ASF F:\VICON\USERDATA\INSTALL\rory3\rory3.ASF
:FULLY-SPECIFIED
:DEGREES
36
root 0.48129766188045586 17.846054864454068 10.63819187055873 -3.352494955819619 -1.978678201470512 -1.072675026333907
lfemur -6.613599272358797 -1.8193043704890943 -20.7582750691514
ltibia 21.812049447805258
lfoot -5.241036073328023 -5.0601271017667235
ltoes -8.627961039389877
rfemur -18.85295962858303 1.200093030113128 23.913415784405892
rtibia 60.78201185421195
rfoot -6.617293168632118 -7.3316428473690225
rtoes 5.852123377777958
lowerback nan 1.0113679414001786 0.44888809447573674
upperback 0.05097811028622547 1.4696472547376895 1.1452461594768721
thorax -5.995429652420404 0.7293579714488655 -0.18252605736141891
lowerneck -16.569004076750694 -3.7247090247455246 -1.602950245651458
upperneck 21.677894185328526 -5.279106029281932 2.2990896474506446
head 9.840843958621274 -2.332371008797173 0.3723203561078513
lclavicle -2.561973769803029e-15 -2.7794188035917247e-15
lhumerus -28.12482642329657 0.3386694564987742 81.62009888318825
lradius 29.340340953967313
lwrist 9.933189228269294
lhand -29.827287725162716 20.962165762928514
lfingers nan
lthumb -2.9650506779269197 51.21306913372421
rclavicle -2.5211914267732662e-15 -2.752600094683913e-15
rhumerus -27.8755963092532 -15.391748802958093 -79.06996544234363
rradius 27.75105728527179
rwrist 5.673442701485037
rhand -17.9403378806731 nan
rfingers nan
rthumb 8.765724216000761 -7.544237026765574
37
root 0.5234448204457935 17.856992643837845 11.837184648304994 -3.8352728959815514 -0.416848384049734 0.840125951891673
lfemur -3.212219637382878 -2.838190234995409 -23.581929041603093
ltibia 22.086789965603366
lfoot -6.49897314549457 -4.879521632563135
ltoes -7.6029580357013495
rfemur -22.001500992371476 -0.5351044048943896 20.42146478192629
rtibia 61.552827601670295
rfoot -7.303794332097045 -6.570778735455859
rtoes 4.436221368031839
lowerback nan 0.829418743456843 -0.8030953526718878
upperback 0.1485180522915166 1.06284401660505 0.982643366775941
thorax -5.947560548940919 0.5023003104917914 0.9154326793074896
lowerneck -16.697512404765035 -3.6323097677854155 -1.6148342331112384
upperneck 21.40862203629377 -5.095422363692736 2.358668711925701
head 9.790505821684379 -2.2562165264893523 0.43692648022949854
lclavicle -2.570943772867373e-15 -2.781413709773734e-15
lhumerus -26.506245580385357 -0.6937544580973625 81.23286471266668
lradius 29.975400918189376
lwrist 9.4172528961105
lhand -29.55159234411261 20.43479845645936
lfingers nan
lthumb -2.6945453891569784 50.68509512588911
rclavicle -2.5290959359070172e-15 -2.7547774315012305e-15
rhumerus -28.660288838020332 -17.042733292365437 -79.87831711192322
rradius 26.276911708204285
rwrist 6.281743530575994
rhand -17.955029727188542 nan
rfingers nan
rthumb 8.81078456595076 -7.625389407733756
38
root 0.5536975122695857 17.865445821007413 13.49250891767788 -3.524275901898262 0.6907371164363186 -0.29381170826172287
lfemur -1.1338478742193319 -3.5584621772215557 -23.22990639112233
ltibia 22.940303750459783
lfoot -7.534962936615586 -4.277799878687409
ltoes -7.2300563655576715
rfemur -24.295162878587107 -1.3246693289335254 20.661900099767095
rtibia 59.81809063128508
rfoot -7.943678936054304 -6.200923619435329
rtoes 3.4703872175914654
lowerback nan 0.5107407371675707 0.019709173657910584
upperback 0.031402779887914165 0.7042074380984458 1.3246504441655926
thorax -5.989732112447989 0.3472715689953262 1.2570090646233627
lowerneck -16.892132747752576 -3.4882832510544284 -1.7002247466819411
upperneck 21.397063117978263 -4.8105839425484085 2.3333086629082858
head 9.757984709563459 -2.1616507993750615 0.49953160336541735
lclavicle -2.5673224961168886e-15 -2.7754696405128276e-15
lhumerus -25.129680044078533 -1.2425370140435334 80.8790096801068
lradius 30.746022510975624
lwrist 9.162891104286777
lhand -29.481403235060935 20.271908896092707
lfingers nan
lthumb -2.638067087854422 50.51757041192728
rclavicle -2.5273685272636787e-15 -2.7510654208646898e-15
rhumerus -29.681223856066328 -18.70348091665571 -80.51604996804663
rradius 25.356806412410922
rwrist 6.636166768930574
rhand -17.879460224056547 nan
rfingers nan
rthumb 8.824524230034935 -7.4858610179459975
39
root 0.5783004489149195 17.87638352661896 15.247508791935893 -3.409761550268892 0.939356336455043 -0.3403834014402154
lfemur 0.6959268937012251 -3.8184310314637218 -23.364654626445322
ltibia 23.841442469351836
lfoot -8.997403071480889 -3.243904643633469
ltoes -7.255335447753685
rfemur -25.500700563528575 -1.2468780710258995 20.536887096556512
rtibia 56.769463628209465
rfoot -8.203894162691522 -5.809759209458019
rtoes 3.2244899015303163
lowerback nan 0.17369274846428515 -0.27797876590305703
upperback -0.04241512816027724 0.18487946880081052 1.453208947806421
thorax -6.0917014022719 0.14644984176018594 1.901492233636709
lowerneck -16.896830283386432 -3.322668132764632 -1.7444587712161108
upperneck 21.370126818247417 -4.504414117556253 2.169235856391876
head 9.708220607311695 -2.0508476649827667 0.5263307568588681
lclavicle -2.5796673317077873e-15 -2.7813441957687122e-15
lhumerus -24.30680843363054 -1.4460086066174394 80.55500808133837
lradius 31.475661210224633
lwrist 8.195099431356066
lhand -29.27097829769706 19.362449246226134
lfingers nan
lthumb -2.524833575857535 49.592781940936035
rclavicle -2.521679013481282e-15 -2.7465587105433355e-15
rhumerus -30.862603808665916 -20.02011770667566 -80.96311183929718
rradius 25.100875674278026
rwrist 6.214978642173886
rhand -17.877258807009994 nan
rfingers nan
rthumb 8.843316790242074 -7.38799031609537
40
root 0.6065852568822335 17.895229201964632 17.416047354730765 -3.21928168859818 0.879300902703483 0.27254516896000025
lfemur 2.609883353864964 -3.8422968283233288 -23.929575774347093
ltibia 24.38504512965705
lfoot -10.024868147661378 -2.527075608950244
ltoes -8.155876782973241
rfemur -25.939399171279796 -0.8004855781029572 19.91709680511984
rtibia 52.92148748903014
rfoot -8.087318516766342 -5.323604345212108
rtoes 2.274228506527908
lowerback nan 0.0016766980106710239 -1.0106942607296912
upperback -0.03131049866347849 -0.09673890307080674 1.4121759387978587
thorax -6.127487487014319 -0.003267478823272607 2.464292416275637
lowerneck -16.869956543632334 -3.171077902042656 -1.8234178518298652
upperneck 21.642676288382788 -4.212557713212908 1.9131332679901303
head 9.774510246187454 -1.9521769717200264 0.4968716038864389
lclavicle -2.584750650776945e-15 -2.7819926588279637e-15
lhumerus -23.87889664940824 -1.3806462939747468 80.34612016079988
lradius 31.94903279409264
lwrist 7.147415670690995
lhand -29.234926640642797 18.902375076254447
lfingers nan
lthumb -2.4486059385302648 49.35134169077538
rclavicle -2.5230154105251547e-15 -2.7457027468782793e-15
rhumerus -32.12315829242555 -20.882704365474506 -81.11133540607976
rradius 25.35764263004981
rwrist 4.738395954940191
rhand -17.77651222172418 nan
rfingers nan
rthumb 8.89271970188056 -7.497301923303841
41
root 0.6337229801174763 17.91321006385703 18.509896155622794 -3.2613697800313655 0.9729784279367777 0.8250957374298236
lfemur 5.077372627587108 -3.7200286895152437 -24.40402938620936
ltibia 24.016303071523815
lfoot -8.736517721823034 -1.484431832670469
ltoes -10.810430689816997
rfemur -26.03060842810973 -0.7082745704663056 19.158728093427662
rtibia 48.9696049702737
rfoot -8.033141796014434 -4.8252473467895705
rtoes 1.6699501471348737
lowerback nan -0.343362941931616 -1.8593464156104782
upperback 0.07808450211716365 -0.9532282349886478 1.481744867713851
thorax -5.983550554985427 -0.3913960750434733 3.188898330266227
lowerneck -16.806241759384477 -3.0517446675771076 -1.9705418328663231
upperneck 21.93313984596473 -3.983817902562834 1.6877773280101869
head 9.883800513291074 -1.8750656643254966 0.4694838709598519
lclavicle -2.58377255149418e-15 -2.7792434163372036e-15
lhumerus -23.76093841291233 -1.3301562096841972 80.28127836353262
lradius 32.07289370333086
lwrist 6.885795199374961
lhand -29.288355540386497 18.76321245918021
lfingers nan
lthumb -2.4768249637204334 49.27101103337339
rclavicle -2.525898807788175e-15 -2.7458606536582875e-15
rhumerus -33.33749518094769 -21.316445876869 -80.97813129357257
rradius 25.969781312229063
rwrist 2.7598358217195678
rhand -17.82768057527329 nan
rfingers nan
rthumb 8.893141226349332 -7.5492787350070145
42
root 0.6654578759144419 17.92600430426651 19.785305264544863 -3.187489006600981 1.1405545103829844 1.1096185531186116
lfemur 6.705483743490312 -3.798722474850776 -24.682902564213105
ltibia 23.968984580061743
lfoot -6.0015942823044925 -2.453096191116998
ltoes -12.620898646294911
rfemur -25.43354961346555 -0.8565451081813569 18.91735223763037
rtibia 45.18038390853791
rfoot -8.12353594400567 -4.448081348063496
rtoes 1.9101788826107133
lowerback nan -0.5597570700379032 -2.1934245511920256
upperback 0.09140016695236212 -1.1941128261442222 1.5647012596177365
thorax -5.959742320328843 -0.5119936365346204 3.405579482904166
lowerneck -16.65833639231382 -2.9752169809143414 -2.094711717776763
upperneck 22.15082568963633 -3.8229702358619995 1.4335580985049101
head 9.948265226063203 -1.8308306943109771 0.4018690606618238
lclavicle -2.5792933930681616e-15 -2.774108382265828e-15
lhumerus -23.910452188853526 -1.369729232591157 80.34072048919275
lradius 31.73500891702993
lwrist 7.187952076072243
lhand -29.436008911375264 18.696856933052793
lfingers nan
lthumb -2.5324693766400754 49.41697323359287
rclavicle -2.5298092233761998e-15 -2.7464396134714863e-15
rhumerus -34.434482990578864 -21.529323578154735 -80.53408587085106
rradius 26.785437578635683
rwrist 1.3034408014540229
rhand -17.717120349003853 nan
rfingers nan
rthumb 8.996316936229498 -7.33893255895253
43
root 0.7007621725084777 17.937923185102328 21.374312941612338 -3.1070258981010466 1.393163219256994 1.5372863352226145
lfemur 7.761069508091573 -3.9935262674895444 -25.10944993237877
ltibia 24.635398802927366
lfoot -3.843169412643201 -4.207684177786444
ltoes -13.472727226573962
rfemur -24.753808155234047 -1.1300907701407503 18.49456828276245
rtibia 41.50361527845236
rfoot -8.423651494772702 -4.60651197580491
rtoes 3.447113842269802
lowerback nan -0.768235470161646 -2.5487822138697442
upperback 0.07334152768547973 -1.4661070161302259 1.6860488813028016
thorax -5.962291779097151 -0.6435471203098629 3.64839106174278
lowerneck -16.574260149277023 -2.936433759049965 -2.1787351591823203
upperneck 22.41427421955168 -3.728617292880404 1.1686915157594984
head 10.023093693924134 -1.813032300651155 0.3146249563855462
lclavicle -2.5780225315943344e-15 -2.772557116147239e-15
lhumerus -24.210194887342425 -1.5589911209481548 80.49201313763142
lradius 31.010392858773322
lwrist 7.474566195380429
lhand -29.490456854703282 18.707368740529756
lfingers nan
lthumb -2.5702215473179706 49.32444462697341
rclavicle -2.5332452043146293e-15 -2.7478777845070175e-15
rhumerus -35.4337688024212 -21.743635102289108 -79.8559922377954
rradius 27.639158714305502
rwrist 0.748940263152921
rhand -17.792750604656312 nan
rfingers nan
rthumb 9.043815625850206 -7.217084171908413
